<svg width="160" height="160" viewBox="0 0 160 160" fill="none" xmlns="http://www.w3.org/2000/svg">
    <path fill-rule="evenodd" clip-rule="evenodd" d="M136.787 116.204H93.1257L100.296 104.244H128.967L107.461 68.3195L100.296 80.2796L86.9178 102.627C85.9511 104.202 84.9075 105.642 83.7852 106.946L72.6805 100.756C73.9968 99.604 75.2059 98.1307 76.3651 96.2859L85.9433 80.2796L71.6376 56.3312L45.9456 99.2511L31.1013 100.083L64.7828 43.8091C65.4841 42.6435 66.4814 41.6818 67.6746 41.0206C68.8757 40.3522 70.2383 40 71.6248 40C73.0076 39.999 74.3676 40.3504 75.575 41.0206C76.7684 41.6817 77.7658 42.6434 78.4673 43.8091L93.1257 68.3195L100.623 55.7855C101.324 54.6198 102.321 53.658 103.514 52.9966C104.715 52.3278 106.077 51.9756 107.464 51.9756C108.846 51.9746 110.206 52.3261 111.413 52.9966C112.606 53.6579 113.603 54.6198 114.304 55.7855L143.625 104.773C144.319 105.932 144.686 107.245 144.686 108.583C144.685 109.924 144.32 111.241 143.629 112.393C142.928 113.559 141.931 114.521 140.738 115.183C139.536 115.852 138.174 116.204 136.787 116.204Z" fill="#00DC82"/>
    <path fill-rule="evenodd" clip-rule="evenodd" d="M14.9999 109.87C14.9999 109.203 15.205 108.586 15.6152 108.021C41.815 73.3036 75.3467 92.9223 77.6539 94.3089C104.777 109.254 133.284 94.4116 133.591 94.2576C134.822 93.5899 136.36 93.8981 137.283 94.9766C138.206 96.0037 138.308 97.5958 137.488 98.7257C137.232 99.0852 112.006 132.93 74.7827 112.387C41.7125 94.1548 20.2297 111.976 20.0246 112.181C18.8453 113.157 17.1021 113.157 15.9741 112.079C15.3076 111.462 14.9999 110.641 14.9999 109.87Z" fill="white"/>
</svg>
